<?xml version="1.0" encoding="UTF-8" standalone="no"?>
<!-- Created with Inkscape (http://www.inkscape.org/) -->

<svg
   version="1.1"
   id="svg186"
   width="161.57489mm"
   height="40.653664mm"
   viewBox="0 0 610.67674 153.65164"
   sodipodi:docname="EventWey-logo.svg"
   inkscape:version="1.2.1 (9c6d41e410, 2022-07-14)"
   xml:space="preserve"
   xmlns:inkscape="http://www.inkscape.org/namespaces/inkscape"
   xmlns:sodipodi="http://sodipodi.sourceforge.net/DTD/sodipodi-0.dtd"
   xmlns="http://www.w3.org/2000/svg"
   xmlns:svg="http://www.w3.org/2000/svg"><defs
     id="defs190" /><sodipodi:namedview
     id="namedview188"
     pagecolor="#ffffff"
     bordercolor="#000000"
     borderopacity="0.25"
     inkscape:showpageshadow="2"
     inkscape:pageopacity="0.0"
     inkscape:pagecheckerboard="0"
     inkscape:deskcolor="#d1d1d1"
     showgrid="false"
     inkscape:zoom="0.80272112"
     inkscape:cx="298.98304"
     inkscape:cy="82.220335"
     inkscape:window-width="1920"
     inkscape:window-height="1017"
     inkscape:window-x="-8"
     inkscape:window-y="-8"
     inkscape:window-maximized="1"
     inkscape:current-layer="g27463"
     inkscape:document-units="mm" /><g
     inkscape:groupmode="layer"
     inkscape:label="Image"
     id="g192"
     transform="translate(-64.013217,-117.46221)"><g
       id="g27463"><g
         id="g848"><g
           id="g403"
           transform="matrix(0.68393326,0,0,0.46440643,-228.97819,107.85798)"><path
             style="fill:#5d9b9b;fill-opacity:1;stroke:#edf5fd;stroke-width:0"
             d="m 428.39181,349.55462 2.86289,-5.72577 4.62465,0.22023 1.54156,-2.20222 73.99453,0.22022 0.44044,2.20222 7.48754,-0.22022 2.20222,5.94598 -10.57065,0.88089 -25.98617,0.66067 h -24.66485 l -19.59974,-0.44045 -9.90998,-1.32133 z"
             id="path475" /><g
             id="g21829"
             transform="translate(49.830509,6.2288136)"><path
               style="fill:#dfb79b;fill-opacity:1;stroke:#edf5fd;stroke-width:0"
               d="m 388.14095,335.61805 -0.88089,-0.991 0.55056,-1.54155 0.88089,-0.33034 71.46197,0.22023 1.76178,1.21122 -0.22022,1.1011 -0.11011,0.33034 z"
               id="path3156" /><path
               style="fill:#d66e6e;fill-opacity:1;stroke:#edf5fd;stroke-width:0"
               d="m 388.47128,332.75516 2.09211,-2.64266 1.32133,-2.09211 0.44045,-3.0831 64.08454,0.33033 0.66067,2.973 1.87188,2.64266 1.87189,2.20222 z"
               id="path6647" /><path
               style="fill:#dfb79b;fill-opacity:1;stroke:#edf5fd;stroke-width:0"
               d="m 392.29847,324.91049 -0.77861,-0.58395 -0.27251,-0.93432 0.46716,-0.38931 0.66182,-0.3893 64.36372,0.45179 1.65166,0.77078 -0.22022,0.55055 -0.55056,0.55056 -0.99099,0.55055 z"
               id="path8083" /><path
               style="fill:#bc5f6e;fill-opacity:1;stroke:#edf5fd;stroke-width:0"
               d="m 392.6555,322.40474 0.44044,-21.25141 62.98344,0.55056 0.33033,21.14129 z"
               id="path8637" /><rect
               style="fill:#5d9b9b;fill-opacity:1;stroke:#edf5fd;stroke-width:0"
               id="rect9105"
               width="26.096285"
               height="17.507635"
               x="411.2092"
               y="302.58478" /><path
               style="fill:#dfb79b;fill-opacity:1;stroke:#edf5fd;stroke-width:0"
               d="m 393.116,301.16314 -0.31144,-0.3893 -1.32363,-0.31144 0.3893,-1.40149 65.40255,0.85646 0.0779,0.93433 -0.85646,1.01218 z"
               id="path10478" /><path
               style="fill:#d66e6e;fill-opacity:1;stroke:#edf5fd;stroke-width:0"
               d="m 391.79237,299.06091 -1.5572,-1.47934 1.71292,-11.91261 11.99047,0.23358 0.93432,-0.93432 38.69651,0.15572 2.18008,1.24576 13.54767,-0.0779 0.23358,11.21187 -2.25794,2.56938 z"
               id="path10549" /><path
               style="fill:#dfb79b;fill-opacity:1;stroke:#edf5fd;stroke-width:0"
               d="m 409.35818,295.51637 30.68428,0.39246 -3.79481,-4.54635 -5.80039,-3.04164 -4.14096,-1.11588 -5.91494,0.23018 -5.03601,2.01005 -3.46718,2.92469 -1.91402,2.59368 z"
               id="path10839" /><path
               style="fill:#d66e6e;fill-opacity:1;stroke:#edf5fd;stroke-width:0"
               d="m 391.87024,286.24864 5.06174,-5.07892 6.02587,0.24978 2.73173,-8.15955 1.28553,-0.74936 -0.45889,13.62778 -2.51388,0.77635 z"
               id="path11600"
               sodipodi:nodetypes="cccccccc" /><path
               style="fill:#d66e6e;fill-opacity:1;stroke:#edf5fd;stroke-width:0"
               d="m 459.37499,286.64448 -5.55747,-5.326 -6.61604,0.26193 -2.99927,-8.5565 -1.41143,-0.78582 0.36778,13.88251 2.89614,1.22236 z"
               id="path11600-2"
               sodipodi:nodetypes="cccccccc" /><rect
               style="fill:#5d9b9b;fill-opacity:1;stroke:#edf5fd;stroke-width:0"
               id="rect11772"
               width="36.516418"
               height="13.46981"
               x="406.74152"
               y="272.19916" /><rect
               style="fill:#d66e6e;fill-opacity:1;stroke:#edf5fd;stroke-width:0"
               id="rect12516"
               width="36.006268"
               height="56.927338"
               x="407.19012"
               y="215.15671" /><rect
               style="fill:#d66e6e;fill-opacity:1;stroke:#edf5fd;stroke-width:0"
               id="rect12516-6"
               width="36.006268"
               height="52.908291"
               x="407.24521"
               y="156.41254" /><rect
               style="fill:#5d9b9b;fill-opacity:1;stroke:#edf5fd;stroke-width:0"
               id="rect14174"
               width="36.061321"
               height="5.8358774"
               x="407.19012"
               y="209.43094" /><rect
               style="fill:#5d9b9b;fill-opacity:1;stroke:#edf5fd;stroke-width:0"
               id="rect14174-5"
               width="36.061321"
               height="6.8480597"
               x="407.08588"
               y="149.53227" /><rect
               style="fill:#5d9b9b;fill-opacity:1;stroke:#edf5fd;stroke-width:0"
               id="rect14962"
               width="24.004177"
               height="45.696026"
               x="413.46646"
               y="220.55215" /><rect
               style="fill:#5d9b9b;fill-opacity:1;stroke:#edf5fd;stroke-width:0"
               id="rect14962-1"
               width="24.004177"
               height="45.696026"
               x="413.42587"
               y="160.27911" /><path
               style="fill:#bc5f6e;fill-opacity:1;stroke:#edf5fd;stroke-width:0"
               d="m 407.19014,149.53061 -4.95499,-9.79987 46.24658,-0.22022 -5.39544,10.02009 z"
               id="path15109" /><path
               style="fill:#d66e6e;fill-opacity:1;stroke:#edf5fd;stroke-width:0"
               d="m 448.26151,139.62063 c 0.11011,-0.55055 2.42244,-2.42244 2.42244,-2.42244 l -49.88025,-0.16517 1.982,2.91794 z"
               id="path16200"
               sodipodi:nodetypes="ccccc" /><path
               style="fill:#d66e6e;fill-opacity:1;stroke:#edf5fd;stroke-width:0"
               d="m 401.13404,137.08808 c 0,0 2.75277,-1.54155 3.0831,-1.982 0.33034,-0.44044 1.43145,-3.30332 1.43145,-3.30332 l 1.21121,-1.10111 0.66067,-45.035364 37.51557,-0.324799 0.5828,45.139943 1.32134,2.0921 1.21122,2.53255 2.53255,2.31233 z"
               id="path16739"
               sodipodi:nodetypes="csccccccccc" /><rect
               style="fill:#5d9b9b;fill-opacity:1;stroke:#edf5fd;stroke-width:0"
               id="rect16795"
               width="37.462135"
               height="6.1662107"
               x="407.63058"
               y="79.500076" /><path
               style="fill:#bc5f6e;fill-opacity:1;stroke:#edf5fd;stroke-width:0"
               d="m 407.83157,79.417373 c 0,-0.311441 -3.11441,-3.970869 -3.11441,-3.970869 V 73.57786 l 42.97882,0.07786 -0.0779,1.635063 -2.49153,4.126589 z"
               id="path19059" /><path
               style="fill:#f3e1bc;fill-opacity:1;stroke:#edf5fd;stroke-width:0"
               d="m 410.00073,73.619734 0.66067,-5.505545 0.88089,-2.202219 1.1011,-1.541552 2.53256,-1.981997 3.74377,-2.092107 2.64266,-1.981996 0.991,-1.651664 -0.11011,-4.84488 1.43144,-0.660665 0.81359,-1.045315 0.54502,-1.790784 1.40148,-33.869174 0.3893,0.389301 0.31144,2.958686 0.23358,30.443327 0.54502,1.868644 0.46716,0.934322 1.55721,0.389301 0.23358,5.372351 1.40148,1.868645 1.32362,1.245762 1.94651,1.245763 2.3358,1.012182 1.63507,1.245763 1.47934,1.790784 1.01218,1.712924 0.62288,2.257944 0.23358,2.413666 0.31145,2.063294 z"
               id="path19130"
               sodipodi:nodetypes="ccccccccccccccccccccccccccccccc" /><path
               style="fill:#fffcfc;fill-opacity:1;fill-rule:evenodd;stroke:#000000;stroke-width:2.547;stroke-dasharray:none;stroke-opacity:1"
               id="path20825"
               sodipodi:type="arc"
               sodipodi:cx="425.85397"
               sodipodi:cy="108.23902"
               sodipodi:rx="22.187347"
               sodipodi:ry="20.810961"
               sodipodi:start="0"
               sodipodi:end="6.2824981"
               sodipodi:open="true"
               sodipodi:arc-type="arc"
               d="m 448.04132,108.23902 a 22.187347,20.810961 0 0 1 -22.18353,20.81096 22.187347,20.810961 0 0 1 -22.19116,-20.80381 22.187347,20.810961 0 0 1 22.17591,-20.818107 22.187347,20.810961 0 0 1 22.19878,20.796657" /><path
               style="fill:#070000;fill-opacity:1;fill-rule:evenodd;stroke-width:1.36262"
               id="path20827"
               sodipodi:type="arc"
               sodipodi:cx="426.08374"
               sodipodi:cy="108.25512"
               sodipodi:rx="2.2279685"
               sodipodi:ry="2.0688279"
               sodipodi:start="0"
               sodipodi:end="6.2824981"
               sodipodi:open="true"
               sodipodi:arc-type="arc"
               d="m 428.31171,108.25512 a 2.2279685,2.0688279 0 0 1 -2.22759,2.06883 2.2279685,2.0688279 0 0 1 -2.22835,-2.06812 2.2279685,2.0688279 0 0 1 2.22682,-2.06954 2.2279685,2.0688279 0 0 1 2.22912,2.06741" /><path
               style="fill:#070000;fill-opacity:1;stroke:none;stroke-width:2.7484;stroke-dasharray:none;stroke-opacity:1"
               d="m 425.10174,108.57419 -14.88093,-12.215641 0.85523,-0.165076 15.47957,11.060107 0.25657,0.82537 -1.28284,0.74285 z"
               id="path20883" /><path
               style="fill:#070000;fill-opacity:1;stroke:none;stroke-width:2.60791;stroke-dasharray:none;stroke-opacity:1"
               d="m 426.42201,109.10948 14.31378,-11.434425 -0.82262,-0.154518 -14.88963,10.352773 -0.24679,0.77259 1.23394,0.69535 z"
               id="path20883-0" /></g></g><text
           xml:space="preserve"
           style="font-style:normal;font-variant:normal;font-weight:normal;font-stretch:normal;font-size:117.452px;font-family:'Arial Rounded MT Bold';-inkscape-font-specification:'Arial Rounded MT Bold, Normal';font-variant-ligatures:normal;font-variant-caps:normal;font-variant-numeric:normal;font-variant-east-asian:normal;fill:#d66e6e;fill-opacity:1;stroke:#611e29;stroke-width:2.82579;stroke-dasharray:none;stroke-opacity:1"
           x="175.21158"
           y="222.3033"
           id="text21720"
           transform="scale(0.91932145,1.0877588)"><tspan
             sodipodi:role="line"
             id="tspan21718"
             x="175.21158"
             y="222.3033"
             style="font-style:normal;font-variant:normal;font-weight:normal;font-stretch:normal;font-size:117.452px;font-family:'Arial Rounded MT Bold';-inkscape-font-specification:'Arial Rounded MT Bold, Normal';font-variant-ligatures:normal;font-variant-caps:normal;font-variant-numeric:normal;font-variant-east-asian:normal;fill:#d66e6e;fill-opacity:1;stroke:#611e29;stroke-width:2.82579;stroke-dasharray:none;stroke-opacity:1">EventWey</tspan></text></g></g></g></svg>
